<svg width="138" height="20" viewBox="0 0 138 20" fill="none" xmlns="http://www.w3.org/2000/svg">
<path d="M0 18.7959V1.51587H8.208C9.488 1.51587 10.584 1.73987 11.496 2.18787C12.424 2.63587 13.136 3.25987 13.632 4.05987C14.144 4.85987 14.4 5.79587 14.4 6.86787C14.4 7.93987 14.144 8.88387 13.632 9.69987C13.12 10.5159 12.4 11.1559 11.472 11.6199C10.56 12.0679 9.472 12.2919 8.208 12.2919H2.928V9.45987H8.016C8.864 9.45987 9.52 9.22787 9.984 8.76387C10.464 8.28387 10.704 7.65987 10.704 6.89187C10.704 6.12387 10.464 5.50787 9.984 5.04387C9.52 4.57987 8.864 4.34787 8.016 4.34787H3.696V18.7959H0Z" fill="white"/>
<path d="M16.2009 18.7959V6.55587H19.8009V18.7959H16.2009ZM16.0809 4.92387V1.03587H19.9209V4.92387H16.0809Z" fill="white"/>
<path d="M28.1668 19.0359C26.8868 19.0359 25.7588 18.7639 24.7828 18.2199C23.8068 17.6759 23.0388 16.9239 22.4788 15.9639C21.9348 15.0039 21.6628 13.9079 21.6628 12.6759C21.6628 11.4439 21.9348 10.3479 22.4788 9.38787C23.0388 8.42787 23.8068 7.67587 24.7828 7.13187C25.7588 6.58787 26.8868 6.31587 28.1668 6.31587C29.2388 6.31587 30.1988 6.51587 31.0468 6.91587C31.9108 7.29987 32.6148 7.83587 33.1588 8.52387C33.7188 9.21187 34.0788 10.0199 34.2388 10.9479H30.7588C30.5828 10.3559 30.2628 9.90787 29.7988 9.60387C29.3508 9.29987 28.8228 9.14787 28.2148 9.14787C27.6388 9.14787 27.1348 9.29187 26.7028 9.57987C26.2868 9.86787 25.9668 10.2759 25.7428 10.8039C25.5188 11.3319 25.4068 11.9559 25.4068 12.6759C25.4068 13.3959 25.5188 14.0199 25.7428 14.5479C25.9668 15.0759 26.2868 15.4839 26.7028 15.7719C27.1348 16.0599 27.6388 16.2039 28.2148 16.2039C28.8228 16.2039 29.3508 16.0519 29.7988 15.7479C30.2628 15.4439 30.5828 14.9959 30.7588 14.4039H34.2388C34.0788 15.3319 33.7188 16.1399 33.1588 16.8279C32.6148 17.5159 31.9108 18.0599 31.0468 18.4599C30.1988 18.8439 29.2388 19.0359 28.1668 19.0359Z" fill="white"/>
<path d="M36.0994 18.7959V1.51587H39.6994V18.7959H36.0994ZM43.9474 18.7959L38.8594 12.4359L43.8274 6.55587H47.9794L42.1474 12.9879L42.3154 11.8599L48.2194 18.7959H43.9474Z" fill="white"/>
<path d="M49.7634 18.7959V1.51587H53.3634V18.7959H49.7634Z" fill="white"/>
<path d="M61.9922 19.0359C60.6322 19.0359 59.4482 18.7719 58.4402 18.2439C57.4322 17.6999 56.6482 16.9479 56.0882 15.9879C55.5442 15.0279 55.2722 13.9239 55.2722 12.6759C55.2722 11.4119 55.5442 10.3079 56.0882 9.36387C56.6482 8.40387 57.4242 7.65987 58.4162 7.13187C59.4082 6.58787 60.5602 6.31587 61.8722 6.31587C63.1362 6.31587 64.2322 6.57187 65.1602 7.08387C66.0882 7.59587 66.8082 8.30787 67.3202 9.21987C67.8322 10.1319 68.0882 11.2039 68.0882 12.4359C68.0882 12.6919 68.0802 12.9319 68.0642 13.1559C68.0482 13.3639 68.0242 13.5639 67.9922 13.7559H57.3842V11.3799H65.0882L64.4642 11.8119C64.4642 10.8199 64.2242 10.0919 63.7442 9.62787C63.2802 9.14787 62.6402 8.90787 61.8242 8.90787C60.8802 8.90787 60.1442 9.22787 59.6162 9.86787C59.1042 10.5079 58.8482 11.4679 58.8482 12.7479C58.8482 13.9959 59.1042 14.9239 59.6162 15.5319C60.1442 16.1399 60.9282 16.4439 61.9682 16.4439C62.5442 16.4439 63.0402 16.3479 63.4562 16.1559C63.8722 15.9639 64.1842 15.6519 64.3922 15.2199H67.7762C67.3762 16.4039 66.6882 17.3399 65.7122 18.0279C64.7522 18.6999 63.5122 19.0359 61.9922 19.0359Z" fill="white"/>
<path d="M75.0746 19.0359C73.2826 19.0359 71.8586 18.6759 70.8026 17.9559C69.7466 17.2359 69.1706 16.2439 69.0746 14.9799H72.2906C72.3706 15.5239 72.6426 15.9399 73.1066 16.2279C73.5866 16.4999 74.2426 16.6359 75.0746 16.6359C75.8266 16.6359 76.3706 16.5319 76.7066 16.3239C77.0586 16.0999 77.2346 15.7879 77.2346 15.3879C77.2346 15.0839 77.1306 14.8519 76.9226 14.6919C76.7306 14.5159 76.3706 14.3719 75.8426 14.2599L73.8746 13.8519C72.4186 13.5479 71.3466 13.0919 70.6586 12.4839C69.9706 11.8599 69.6266 11.0599 69.6266 10.0839C69.6266 8.89987 70.0826 7.97987 70.9946 7.32387C71.9066 6.65187 73.1786 6.31587 74.8106 6.31587C76.4266 6.31587 77.7146 6.64387 78.6746 7.29987C79.6346 7.93987 80.1626 8.83587 80.2586 9.98787H77.0426C76.9786 9.57187 76.7546 9.25987 76.3706 9.05187C75.9866 8.82787 75.4426 8.71587 74.7386 8.71587C74.0986 8.71587 73.6186 8.81187 73.2986 9.00387C72.9946 9.17987 72.8426 9.43587 72.8426 9.77187C72.8426 10.0599 72.9706 10.2919 73.2266 10.4679C73.4826 10.6279 73.9066 10.7719 74.4986 10.8999L76.7066 11.3559C77.9386 11.6119 78.8666 12.0919 79.4906 12.7959C80.1306 13.4839 80.4506 14.2999 80.4506 15.2439C80.4506 16.4439 79.9786 17.3799 79.0346 18.0519C78.1066 18.7079 76.7866 19.0359 75.0746 19.0359Z" fill="white"/>
<path d="M84.952 19.0119C84.504 19.0119 84.024 18.9639 83.512 18.8679C83.016 18.7719 82.544 18.6439 82.096 18.4839C81.664 18.3079 81.32 18.1079 81.064 17.8839C80.984 17.8039 80.928 17.7239 80.896 17.6439C80.88 17.5639 80.888 17.4439 80.92 17.2839L81.592 13.5159C81.64 13.2279 81.768 13.0839 81.976 13.0839C82.168 13.0839 82.264 13.2439 82.264 13.5639L82.288 14.4999C82.32 15.8439 82.552 16.8119 82.984 17.4039C83.416 17.9959 84.12 18.2919 85.096 18.2919C85.992 18.2919 86.736 17.9719 87.328 17.3319C87.92 16.6759 88.216 15.8039 88.216 14.7159C88.216 14.0119 88.024 13.2759 87.64 12.5079C87.256 11.7399 86.72 10.9719 86.032 10.2039C85.216 9.29187 84.608 8.45987 84.208 7.70787C83.824 6.95587 83.632 6.16387 83.632 5.33187C83.632 4.67587 83.792 4.04387 84.112 3.43587C84.432 2.81187 84.912 2.29987 85.552 1.89987C86.208 1.48387 87.04 1.27587 88.048 1.27587C89.44 1.27587 90.504 1.58787 91.24 2.21187C91.464 2.38787 91.544 2.65187 91.48 3.00387L90.808 6.50787C90.76 6.74787 90.648 6.86787 90.472 6.86787C90.296 6.86787 90.192 6.73187 90.16 6.45987L90.136 5.95587C90.072 4.65987 89.888 3.67587 89.584 3.00387C89.296 2.31587 88.712 1.97187 87.832 1.97187C87.192 1.97187 86.68 2.11587 86.296 2.40387C85.912 2.69187 85.632 3.05187 85.456 3.48387C85.28 3.89987 85.192 4.31587 85.192 4.73187C85.192 5.19587 85.256 5.64387 85.384 6.07587C85.512 6.49187 85.728 6.93987 86.032 7.41987C86.352 7.88387 86.784 8.45187 87.328 9.12387C88.096 10.0359 88.696 10.9079 89.128 11.7399C89.56 12.5719 89.776 13.3799 89.776 14.1639C89.776 15.1079 89.56 15.9479 89.128 16.6839C88.712 17.4039 88.144 17.9719 87.424 18.3879C86.704 18.8039 85.88 19.0119 84.952 19.0119Z" fill="white"/>
<path d="M93.4199 19.0119C92.8759 19.0119 92.4519 18.7959 92.1479 18.3639C91.8439 17.9319 91.7959 17.2359 92.0039 16.2759L93.9959 7.58787C94.0439 7.34787 93.9479 7.22787 93.7079 7.22787H92.7959C92.5719 7.22787 92.4599 7.12387 92.4599 6.91587C92.4599 6.80387 92.4999 6.71587 92.5799 6.65187C92.6599 6.58787 92.7559 6.55587 92.8679 6.55587H93.7319C94.0999 6.55587 94.3159 6.38787 94.3799 6.05187L94.9559 3.48387C95.0039 3.30787 95.1159 3.21987 95.2919 3.21987H96.2759C96.4999 3.21987 96.5879 3.32387 96.5399 3.53187L95.9399 6.19587C95.8919 6.43587 95.9879 6.55587 96.2279 6.55587H97.5959C97.8679 6.55587 98.0039 6.65987 98.0039 6.86787C98.0039 7.10787 97.8359 7.22787 97.4999 7.22787H96.2039C95.8519 7.22787 95.6359 7.39587 95.5559 7.73187L93.5399 16.5159C93.4599 16.8679 93.4679 17.1479 93.5639 17.3559C93.6759 17.5479 93.8599 17.6439 94.1159 17.6439C94.4839 17.6439 94.8199 17.4359 95.1239 17.0199C95.4439 16.6039 95.7799 15.8119 96.1319 14.6439C96.1959 14.4359 96.2999 14.3319 96.4439 14.3319C96.5559 14.3319 96.6279 14.3799 96.6599 14.4759C96.6919 14.5719 96.6679 14.7479 96.5879 15.0039C96.2839 16.0919 95.9479 16.9239 95.5799 17.4999C95.2279 18.0759 94.8679 18.4759 94.4999 18.6999C94.1319 18.9079 93.7719 19.0119 93.4199 19.0119Z" fill="white"/>
<path d="M100.271 19.0119C99.6789 19.0119 99.2709 18.7479 99.0469 18.2199C98.8389 17.6759 98.8549 16.9639 99.0949 16.0839L100.991 9.12387C101.119 8.65987 101.151 8.29987 101.087 8.04387C101.023 7.78787 100.879 7.65987 100.655 7.65987C100.287 7.65987 99.9109 7.93987 99.5269 8.49987C99.1589 9.05987 98.8389 9.83587 98.5669 10.8279C98.5189 11.0039 98.4149 11.0919 98.2549 11.0919C98.0309 11.0919 97.9589 10.9319 98.0389 10.6119C98.4069 9.26787 98.8869 8.23587 99.4789 7.51587C100.087 6.77987 100.751 6.41187 101.471 6.41187C102.047 6.41187 102.431 6.67587 102.623 7.20387C102.815 7.73187 102.783 8.45187 102.527 9.36387L100.607 16.3239C100.303 17.4279 100.407 17.9799 100.919 17.9799C101.239 17.9799 101.607 17.7639 102.023 17.3319C102.439 16.8999 102.871 16.3079 103.319 15.5559C103.783 14.8039 104.239 13.9479 104.687 12.9879C105.135 12.0279 105.543 11.0199 105.911 9.96387C106.279 8.90787 106.583 7.85987 106.823 6.81987C106.871 6.64387 106.983 6.55587 107.159 6.55587H108.119C108.343 6.55587 108.431 6.65987 108.383 6.86787L106.127 16.5159C105.951 17.2679 106.087 17.6439 106.535 17.6439C107.207 17.6439 107.911 16.6279 108.647 14.5959C108.711 14.3879 108.823 14.2839 108.983 14.2839C109.079 14.2839 109.143 14.3239 109.175 14.4039C109.223 14.4839 109.223 14.5879 109.175 14.7159C108.743 16.0759 108.231 17.1319 107.639 17.8839C107.047 18.6359 106.423 19.0119 105.767 19.0119C104.615 19.0119 104.231 18.1719 104.615 16.4919L105.239 13.8279C105.271 13.7159 105.247 13.6519 105.167 13.6359C105.103 13.6199 105.047 13.6599 104.999 13.7559C104.071 15.6759 103.215 17.0359 102.431 17.8359C101.647 18.6199 100.927 19.0119 100.271 19.0119Z" fill="white"/>
<path d="M111.858 19.0119C111.266 19.0119 110.81 18.7639 110.49 18.2679C110.17 17.7719 110.01 17.0439 110.01 16.0839C110.01 15.1719 110.138 14.2599 110.394 13.3479C110.65 12.4199 111.002 11.5399 111.45 10.7079C111.898 9.87587 112.402 9.13987 112.962 8.49987C113.538 7.85987 114.138 7.35587 114.762 6.98787C115.402 6.60387 116.034 6.41187 116.658 6.41187C117.09 6.41187 117.466 6.52387 117.786 6.74787C118.01 6.89187 118.146 6.84387 118.194 6.60387L118.962 3.43587C119.042 3.14787 119.042 2.94787 118.962 2.83587C118.898 2.72387 118.754 2.65987 118.53 2.64387L117.81 2.57187C117.57 2.55587 117.466 2.45187 117.498 2.25987C117.53 2.11587 117.642 2.02787 117.834 1.99587C118.41 1.89987 118.922 1.78787 119.37 1.65987C119.818 1.51587 120.178 1.33187 120.45 1.10787C120.578 1.01187 120.698 0.963867 120.81 0.963867C121.002 0.963867 121.074 1.08387 121.026 1.32387L117.618 16.0839C117.378 17.1239 117.538 17.6439 118.098 17.6439C118.466 17.6439 118.794 17.3959 119.082 16.8999C119.386 16.4039 119.69 15.6359 119.994 14.5959C120.042 14.4199 120.146 14.3319 120.306 14.3319C120.418 14.3319 120.49 14.3799 120.522 14.4759C120.554 14.5719 120.554 14.6839 120.522 14.8119C120.218 16.3159 119.794 17.3959 119.25 18.0519C118.722 18.6919 118.098 19.0119 117.378 19.0119C116.754 19.0119 116.306 18.7479 116.034 18.2199C115.778 17.6919 115.754 16.9719 115.962 16.0599L116.226 14.9559C116.258 14.8439 116.234 14.7799 116.154 14.7639C116.09 14.7479 116.034 14.7879 115.986 14.8839C115.218 16.3879 114.49 17.4519 113.802 18.0759C113.114 18.6999 112.466 19.0119 111.858 19.0119ZM112.434 17.7879C112.818 17.7879 113.242 17.5559 113.706 17.0919C114.17 16.6279 114.626 16.0279 115.074 15.2919C115.538 14.5559 115.962 13.7639 116.346 12.9159C116.73 12.0679 117.034 11.2519 117.258 10.4679C117.498 9.68387 117.618 9.01987 117.618 8.47587C117.618 7.49987 117.274 7.01187 116.586 7.01187C116.17 7.01187 115.73 7.20387 115.266 7.58787C114.802 7.95587 114.354 8.45987 113.922 9.09987C113.506 9.73987 113.122 10.4679 112.77 11.2839C112.434 12.0839 112.162 12.9239 111.954 13.8039C111.746 14.6679 111.642 15.5159 111.642 16.3479C111.642 16.9079 111.714 17.2919 111.858 17.4999C112.018 17.6919 112.21 17.7879 112.434 17.7879Z" fill="white"/>
<path d="M125.962 4.27587C125.658 4.27587 125.402 4.17187 125.194 3.96387C125.002 3.73987 124.906 3.47587 124.906 3.17187C124.906 2.73987 125.034 2.39587 125.29 2.13987C125.562 1.88387 125.866 1.75587 126.202 1.75587C126.522 1.75587 126.786 1.85987 126.994 2.06787C127.218 2.25987 127.33 2.51587 127.33 2.83587C127.33 3.28387 127.194 3.63587 126.922 3.89187C126.65 4.14787 126.33 4.27587 125.962 4.27587ZM123.994 19.0359C123.466 19.0359 123.09 18.8439 122.866 18.4599C122.642 18.0599 122.634 17.4119 122.842 16.5159L124.618 8.90787C124.698 8.55587 124.706 8.28387 124.642 8.09187C124.594 7.88387 124.45 7.77987 124.21 7.77987C123.922 7.77987 123.602 7.99587 123.25 8.42787C122.914 8.84387 122.53 9.64387 122.098 10.8279C122.034 11.0359 121.922 11.1399 121.762 11.1399C121.522 11.1399 121.458 10.9959 121.57 10.7079C121.922 9.60387 122.29 8.73987 122.674 8.11587C123.074 7.49187 123.474 7.05187 123.874 6.79587C124.274 6.53987 124.642 6.41187 124.978 6.41187C125.538 6.41187 125.93 6.61187 126.154 7.01187C126.378 7.39587 126.386 8.03587 126.178 8.93187L124.402 16.5399C124.322 16.8919 124.306 17.1719 124.354 17.3799C124.418 17.5719 124.57 17.6679 124.81 17.6679C125.098 17.6679 125.41 17.4599 125.746 17.0439C126.098 16.6119 126.49 15.8039 126.922 14.6199C126.986 14.4119 127.098 14.3079 127.258 14.3079C127.498 14.3079 127.562 14.4519 127.45 14.7399C127.114 15.8279 126.738 16.6919 126.322 17.3319C125.922 17.9559 125.522 18.3959 125.122 18.6519C124.722 18.9079 124.346 19.0359 123.994 19.0359Z" fill="white"/>
<path d="M131.676 19.0119C130.684 19.0119 129.9 18.6039 129.324 17.7879C128.748 16.9559 128.46 15.8359 128.46 14.4279C128.46 13.3879 128.628 12.3879 128.964 11.4279C129.3 10.4679 129.74 9.61187 130.284 8.85987C130.844 8.10787 131.46 7.51587 132.132 7.08387C132.82 6.63587 133.508 6.41187 134.196 6.41187C135.188 6.41187 135.972 6.81987 136.548 7.63587C137.124 8.45187 137.412 9.57187 137.412 10.9959C137.412 12.0359 137.244 13.0359 136.908 13.9959C136.572 14.9559 136.124 15.8119 135.564 16.5639C135.02 17.3159 134.404 17.9159 133.716 18.3639C133.044 18.7959 132.364 19.0119 131.676 19.0119ZM131.628 18.4359C132.14 18.4359 132.636 18.1879 133.116 17.6919C133.612 17.1959 134.06 16.5399 134.46 15.7239C134.86 14.9079 135.18 14.0039 135.42 13.0119C135.66 12.0039 135.78 10.9959 135.78 9.98787C135.78 7.98787 135.26 6.98787 134.22 6.98787C133.724 6.98787 133.228 7.23587 132.732 7.73187C132.236 8.21187 131.788 8.85987 131.388 9.67587C131.004 10.4919 130.692 11.4039 130.452 12.4119C130.212 13.4039 130.092 14.4039 130.092 15.4119C130.092 17.4279 130.604 18.4359 131.628 18.4359Z" fill="white"/>
</svg>
